<svg width="197" height="47" fill="none" xmlns="http://www.w3.org/2000/svg"><path d="M75 6.507v.458l-1.354 1.217-.669-.022-.508.275.138.55v.39l-1.179.575-.206.804v1.514l.925 1.1-.115.46-.972.39v.618l-.698.374-.46.245h-.763l-1.201 1.217.185.184.209 1.377-.787 1.792-.299-.047-.069-.506-.747-.041.514.89.601.711-.254 1.058-.416.676h-.409l.063-.769-.353-.553-.517-.27-.053-.693.162-.872-.252-.161-.58.597.21.436.046.965.37.184.393.734.085.4.051.242-.162.529.602.046.463.203-.116.577.392.252-.022.228-.394.368.693.528v.689l-.532.32.323.574-.23.575-1.828.297v.71l-.53 1.012-.856.185-.131.221-.493.833.024.46-1.108 1.17h-.467l-.37.802-.601.321-.01.193-.151 2.379.439.575.187.802.024.022.461.391v.621l1.109.941.115 1.058.415.77.811 1.502v2.276h-1.711v-.025c-.066-.169-.486-.532-.486-.532l-.645.05v-.782h-.44l-.186-.297v-.436l-.37-.024-.738-.85.093-.482-.37.047-.186-.344.024-.101.162-.702-.117-1.193-.393-.137-1.177-1.286-.996-.07-1.177.688-.464.115-.715-1.054-1.91-.14-.286-.021-.03.02-.594.438-.323-.367-.41.36-1.717.007v.735l-.323.436.878.896-.485.297-1.18-.551-.625.736-1.062-.003-.299-1.034-1.226-.343v.529l-.252.16-1.69-.435h-.715l-2.289 1.01v.46l-.923.617-1.018.208-.37.551-.509.046-.276.642-.346.093.022 1.332c-.064.22-.055.482-.017.736.088.574.34 1.121.34 1.121l-.3.229-1.246-.368c-.805-.154-1.299-.582-1.596-.982a2.524 2.524 0 01-.417-.829c-.091-.621-.23-.85-.23-.85-.762-.435-1.341-2.042-1.341-2.042-.007-.02-.016-.038-.025-.055-.553-1.317-1.34-1.964-1.34-1.964h-.762l-.23-.252-1.295-.046v.896l-.809.618c-1.201-.297-2.052-1.78-2.052-1.78l.042-.812-2.635-3.167-2.452-.184-.205.942-4.37-.528-5.016-3.008v-.803H6.82l-.114-1.246-.048-.543-.602-.228v-.688h-.555l-.085-.497-.468-.123-.88-1.078-1.155-.137-.392-.321.053-.16.002-.002.175-.506-.139-.25-.117-.3.162-.413-.738-1.813-.21-.185v-.275l.324-.343v-.343l-.532-.622.046-1.354-.485-.529.046-.735-.54-.811.054-1.089.163-.693L0 15.41l.44-.598.808-1.308-.091-.642.23-.413.093-1.652 1.48-2.664v-.597l.247-.359.214-.307.464-1.468v-.412L4.3 4.51l-.254-.46.03-.749.385-.372-.368-.052.022-.549-.23-.115v-.366l.23-.617h.324l.209.55.762.3.81.137v.552l-.346.483-.464.16.094.734h.669l.463-.551v-.646l.185-.228-.37-.482.266-.46.104-.25-.21-.209.208-.533 2.865.877 3.539.94 1.212.267.152.032 6.034.965.13.017 1.474.175 7.486.9 6.51.285 3.052-.205v-.597l.626.366v.757l1.294.46.37-.414.97.32.279.46.947.322.74-.232 1.617.252.394-.617.484-.047.646-.688-.045-.252.185-.344 1.757.069.323.208.67 1.261.67.024.138-.367.58.343.046.6.37.25.017.484.006.184.392.022v.482l.44.321.186.412 1.571-.09 2.367-.049.939.92.738 1.1-.278.476h-1.027l-.519-.589-.162.093.065.496.05.374-.485.872.323 1.332-.74.598-.067 1.17-.763.251v.391l.856.047 1.224-1.401 1.132.069.996-.78.692.023.185-.368-.161-.32-.74.092-.116-.529.738-.71 1.248-.665.974.045-.14-.436 1.547-.642.348-.71.971-.85 3.698-.852.23-.616.57-.16.006-.001.14-.275.022-.436.325-.115-.024-.482-.276-.575.382-1.894h2.546l.609 1.894.555.024.065.59 1.01.117zM90.277 21.795v-3.977h15.803v3.977h-5.469V36h-4.865V21.795h-5.469zM112.909 28.33V36h-4.9V17.818h4.723v7.138h.142c.307-.87.819-1.548 1.535-2.033.717-.491 1.578-.737 2.584-.737.965 0 1.802.219 2.512.657a4.42 4.42 0 011.66 1.811c.397.77.592 1.651.586 2.646V36h-4.9v-7.67c.006-.675-.163-1.205-.506-1.59-.338-.384-.82-.577-1.447-.577-.598 0-1.077.193-1.438.577-.362.385-.545.915-.551 1.59zM130.705 36.248c-2.184 0-3.904-.618-5.158-1.855-1.249-1.243-1.874-2.968-1.874-5.176 0-1.408.285-2.64.853-3.693a6.089 6.089 0 012.406-2.46c1.035-.585 2.258-.878 3.666-.878 1.373 0 2.566.281 3.578.843a5.803 5.803 0 012.361 2.415c.563 1.042.844 2.288.844 3.738v1.136h-8.878v.213c0 .657.201 1.202.604 1.634.408.426.976.639 1.704.639.503 0 .941-.104 1.314-.31.379-.214.639-.513.781-.898h4.475c-.231 1.421-.929 2.551-2.095 3.392-1.16.84-2.687 1.26-4.581 1.26zm-2.202-8.629h4.368c-.012-.586-.225-1.062-.639-1.43-.409-.372-.918-.558-1.527-.558-.598 0-1.113.183-1.545.55-.426.367-.645.846-.657 1.438zM155.085 17.818h4.901v12.003c0 1.385-.325 2.554-.976 3.507-.646.947-1.557 1.666-2.735 2.157-1.172.485-2.551.728-4.137.728-1.598 0-2.986-.243-4.164-.728-1.172-.491-2.08-1.21-2.725-2.157-.639-.953-.959-2.122-.959-3.507V17.818h4.936v11.79c0 .675.258 1.222.772 1.642.521.42 1.235.63 2.14.63.923 0 1.645-.21 2.166-.63.521-.42.781-.967.781-1.642v-11.79zM172.133 23.5c-.047-.592-.269-1.054-.666-1.385-.39-.331-.985-.497-1.784-.497-.764 0-1.32.13-1.669.39s-.527.592-.533.995c-.023.432.163.784.559 1.056.403.272 1.033.5 1.891.684l1.492.32c2.006.431 3.453 1.124 4.341 2.077.888.947 1.335 2.113 1.341 3.498-.006 1.793-.663 3.172-1.971 4.137-1.308.959-3.113 1.438-5.416 1.438-1.58 0-2.959-.234-4.137-.701-1.172-.468-2.083-1.187-2.734-2.158-.645-.976-.971-2.225-.977-3.746h4.688c.041.834.328 1.47.861 1.909.539.432 1.281.648 2.228.648.793 0 1.391-.142 1.794-.426.408-.285.615-.652.621-1.101-.006-.415-.21-.758-.612-1.03-.403-.278-1.11-.527-2.122-.746l-1.811-.39c-1.61-.35-2.88-.933-3.809-1.75-.923-.822-1.382-1.944-1.376-3.364-.006-1.154.302-2.163.923-3.027.628-.87 1.495-1.548 2.602-2.034 1.112-.485 2.388-.727 3.826-.727 1.468 0 2.737.245 3.808.736 1.072.492 1.897 1.184 2.477 2.078.586.888.882 1.926.888 3.116h-4.723zM182.997 36h-5.326l6.001-18.182h6.747L196.421 36h-5.327l-1.048-3.48h-6.001L182.997 36zm2.167-7.173h3.764l-1.811-6.002h-.142l-1.811 6.002z" fill="#fff"/></svg>